<?xml version="1.0" encoding="utf-8"?>
<!-- Svg Vector Icons : http://www.onlinewebfonts.com/icon -->
<!DOCTYPE svg PUBLIC "-//W3C//DTD SVG 1.1//EN" "http://www.w3.org/Graphics/SVG/1.1/DTD/svg11.dtd">
<svg version="1.1" xmlns="http://www.w3.org/2000/svg" xmlns:xlink="http://www.w3.org/1999/xlink" x="0px" y="0px" viewBox="0 0 1000 1000" enable-background="new 0 0 1000 1000" xml:space="preserve">
<metadata> Svg Vector Icons : http://www.onlinewebfonts.com/icon </metadata>
<g><path d="M10,71.2c38.8,0,77.5,0,118.1,0c0,246.3,0,491.5,0,738.9c257.6,0,513.5,0,770.7,0c0,40.2,0,78.2,0,117.5c-3.7,0.5-7.2,1.4-10.8,1.4c-292.7,0-585.3-0.1-878-0.2C10,642.8,10,357,10,71.2z"/><path d="M990,170.7c-5.1,42.2-10.3,84.4-15.3,126.7c-2.2,18.2-3.9,36.4-6.5,60.4c-17.9-21.4-32.8-39.2-47.3-56.5c-78.7,77.2-152.4,149.4-227.2,222.8c-51.2-53.2-103.6-107.6-154.9-160.9c-95.8,94.3-187,183.9-276.8,272.3c-23.9-24.7-47.6-49.2-72.3-74.7c112.4-109.7,229-223.4,347-338.7c46.8,49.1,99,103.9,150.6,158c54.3-53.8,103.1-102.1,153.9-152.4c-19-17.2-37.8-34.3-56.6-51.4c0.6-1.6,1.2-3.3,1.8-4.9c18.4-2.1,36.8-4.4,55.2-6.2c49.4-4.7,98.9-9.2,148.3-13.8C990,157.9,990,164.3,990,170.7z"/></g>
</svg>